<?xml version="1.0" encoding="UTF-8" standalone="no"?>
<!-- Created with Inkscape (http://www.inkscape.org/) -->

<svg
   width="116.96083mm"
   height="58.053085mm"
   viewBox="0 0 116.96082 58.053085"
   version="1.1"
   id="svg1"
   inkscape:version="1.4.3 (0d15f75042, 2025-12-25)"
   sodipodi:docname="icons.svg"
   inkscape:export-batch-name="echo"
   inkscape:export-batch-path="../docs/public/icons"
   xmlns:inkscape="http://www.inkscape.org/namespaces/inkscape"
   xmlns:sodipodi="http://sodipodi.sourceforge.net/DTD/sodipodi-0.dtd"
   xmlns:xlink="http://www.w3.org/1999/xlink"
   xmlns="http://www.w3.org/2000/svg"
   xmlns:svg="http://www.w3.org/2000/svg">
  <sodipodi:namedview
     id="namedview1"
     pagecolor="#ffffff"
     bordercolor="#000000"
     borderopacity="0.25"
     inkscape:showpageshadow="2"
     inkscape:pageopacity="0.0"
     inkscape:pagecheckerboard="0"
     inkscape:deskcolor="#d1d1d1"
     inkscape:document-units="mm"
     inkscape:zoom="1.0230034"
     inkscape:cx="198.92408"
     inkscape:cy="228.73825"
     inkscape:window-width="1920"
     inkscape:window-height="1013"
     inkscape:window-x="0"
     inkscape:window-y="0"
     inkscape:window-maximized="1"
     inkscape:current-layer="layer1">
    <inkscape:page
       x="0"
       y="0"
       width="116.96082"
       height="58.053085"
       id="page8"
       margin="0"
       bleed="0"
       inkscape:label="title" />
    <inkscape:page
       x="-45.555782"
       y="72.122559"
       width="19.75123"
       height="15.45351"
       id="page9"
       margin="0"
       bleed="0" />
  </sodipodi:namedview>
  <defs
     id="defs1">
    <linearGradient
       id="linearGradient10"
       inkscape:collect="always">
      <stop
         style="stop-color:#737373;stop-opacity:1;"
         offset="0"
         id="stop10" />
      <stop
         style="stop-color:#737373;stop-opacity:0;"
         offset="1"
         id="stop11" />
    </linearGradient>
    <linearGradient
       id="linearGradient7"
       inkscape:collect="always">
      <stop
         style="stop-color:#000000;stop-opacity:0.15805151;"
         offset="0"
         id="stop7" />
      <stop
         style="stop-color:#000000;stop-opacity:0;"
         offset="1"
         id="stop8" />
    </linearGradient>
    <linearGradient
       inkscape:collect="always"
       xlink:href="#linearGradient7"
       id="linearGradient8"
       x1="32.119286"
       y1="45.260517"
       x2="32.119286"
       y2="49.238197"
       gradientUnits="userSpaceOnUse"
       gradientTransform="matrix(2.4985017,0,0,1.200929,5.1117479,9.5822377)" />
    <linearGradient
       inkscape:collect="always"
       xlink:href="#linearGradient10"
       id="linearGradient11"
       x1="10.927034"
       y1="40.207153"
       x2="53.717705"
       y2="40.207153"
       gradientUnits="userSpaceOnUse"
       gradientTransform="matrix(2.4985017,0,0,2.4985017,5.1117479,-46.669391)" />
  </defs>
  <g
     inkscape:label="Layer 1"
     inkscape:groupmode="layer"
     id="layer1"
     transform="translate(-25.713462,-26.120907)">
    <path
       id="rect3"
       style="fill:url(#linearGradient11);stroke-width:0.499701;stroke-linecap:round;stroke-linejoin:round;stroke-dasharray:0.9994, 0.9994"
       d="m 32.412959,31.361856 v 10.529218 l 41.392547,22.097801 h 19.799579 l 45.720435,-30.221634 -53.716445,29.823964 0.01299,-0.02199 z m 40.175005,39.458421 -0.410581,0.228539 0.410581,0.723036 z" />
    <path
       id="text1"
       style="font-style:normal;font-variant:normal;font-weight:normal;font-stretch:normal;font-size:18.8707px;font-family:Roboto;-inkscape-font-specification:Roboto;writing-mode:lr-tb;direction:ltr;fill:#000000;fill-opacity:1;stroke:#000000;stroke-width:0.312313;stroke-linecap:round;stroke-linejoin:round;stroke-dasharray:none;stroke-opacity:1"
       d="m 82.976792,42.200391 v 21.772435 h 4.258166 v -4.187153 c 0.26994,-0.537001 0.584502,-1.03442 0.943821,-1.492555 0.62926,-0.782739 1.374189,-1.396076 2.233665,-1.841161 0.874826,-0.445086 1.842186,-0.66881 2.901186,-0.66881 1.074346,0 1.979855,0.184265 2.71655,0.552606 0.736696,0.353002 1.296073,0.929455 1.679769,1.727543 0.383697,0.782737 0.575846,1.826442 0.575846,3.131004 v 2.778526 H 102.5685 V 61.23949 c 0,-1.642215 -0.18427,-3.03076 -0.55261,-4.166496 -0.36835,-1.151087 -0.90534,-2.086877 -1.61134,-2.808223 -0.690651,-0.721348 -1.527709,-1.243845 -2.509968,-1.566149 -0.98226,-0.337652 -2.087814,-0.506123 -3.315638,-0.506123 -1.504086,0 -2.876845,0.298772 -4.120017,0.897338 -1.227827,0.583216 -2.287314,1.412381 -3.177487,2.48673 -0.01549,0.01849 -0.03118,0.0368 -0.04647,0.05551 V 42.200388 Z M 43.07938,52.192499 c -1.396649,0 -2.747023,0.284279 -4.051584,0.852148 -1.304566,0.56787 -2.470676,1.403636 -3.49898,2.508679 -1.028303,1.105042 -1.841685,2.455414 -2.44025,4.051586 -0.493846,1.304259 -0.783827,2.760684 -0.870224,4.367914 h 21.102334 c -0.02963,-1.587811 -0.228412,-3.058725 -0.595213,-4.413103 -0.399043,-1.488737 -1.01238,-2.778551 -1.841161,-3.868246 -0.828783,-1.105042 -1.896165,-1.964486 -3.200728,-2.578399 -1.289216,-0.613914 -2.823846,-0.920579 -4.604194,-0.920579 z m 25.186201,0 c -1.872432,0 -3.507087,0.330344 -4.903736,0.9903 -1.381302,0.659955 -2.53163,1.565465 -3.4525,2.716551 -0.905519,1.151085 -1.588597,2.477779 -2.049034,3.981865 -0.386887,1.294078 -0.606601,2.658373 -0.657188,4.091611 h 4.260752 c 0.0344,-0.864236 0.137992,-1.713925 0.309872,-2.548701 0.230212,-1.059 0.598736,-2.018467 1.105212,-2.877944 0.521827,-0.874826 1.219399,-1.565797 2.094224,-2.072276 0.890174,-0.521823 1.987833,-0.782428 3.292398,-0.782428 1.135739,0 2.125486,0.254001 2.969614,0.76048 0.859477,0.49113 1.534662,1.150529 2.025793,1.979312 0.506478,0.828781 0.798651,1.757969 0.87539,2.786272 h 4.051587 c -0.07673,-1.718954 -0.537386,-3.254876 -1.381515,-4.605483 -0.828784,-1.365956 -1.972508,-2.439939 -3.430551,-3.222677 -1.45804,-0.798086 -3.161146,-1.196882 -5.110318,-1.196882 z m 50.855289,0 c -1.73431,0 -3.30051,0.322451 -4.69716,0.96706 -1.39665,0.629259 -2.58515,1.518984 -3.56741,2.67007 -0.98226,1.135737 -1.73508,2.478217 -2.2569,4.028344 -0.43538,1.280523 -0.68835,2.652708 -0.76048,4.114853 h 4.26333 c 0.0537,-0.904465 0.18973,-1.769938 0.41058,-2.595184 0.29161,-1.105042 0.72987,-2.079002 1.31309,-2.923131 0.59856,-0.85948 1.33431,-1.534665 2.20914,-2.025795 0.89016,-0.491128 1.91937,-0.737239 3.08581,-0.737239 1.18178,0 2.2097,0.246102 3.08452,0.737239 0.89018,0.49113 1.62722,1.166315 2.21043,2.025795 0.59856,0.844129 1.04342,1.818089 1.33503,2.923131 0.23246,0.825246 0.37741,1.690719 0.43383,2.595184 h 4.28657 c -0.0722,-1.462145 -0.3251,-2.83433 -0.76048,-4.114853 -0.52182,-1.550127 -1.28124,-2.892607 -2.27885,-4.028344 -0.98226,-1.151086 -2.17995,-2.040811 -3.59195,-2.67007 -1.39665,-0.644609 -2.96946,-0.96706 -4.7191,-0.96706 z m -76.04149,3.498978 c 1.458044,0 2.609663,0.338238 3.453791,1.013542 0.844129,0.675303 1.457466,1.534747 1.841161,2.578399 0.399044,1.043652 0.629368,2.117635 0.690759,3.222677 v 0.322784 H 36.60175 c 0.0805,-0.639924 0.197756,-1.238763 0.35377,-1.795969 0.322305,-1.151088 0.775061,-2.126338 1.358276,-2.924425 0.583218,-0.798086 1.282081,-1.395637 2.095515,-1.794681 0.813433,-0.414389 1.703159,-0.622327 2.670069,-0.622327 z" />
    <rect
       style="fill:url(#linearGradient8);fill-opacity:1;stroke:none;stroke-width:0.192446;stroke-linecap:round;stroke-linejoin:round;stroke-dasharray:0.384892, 0.384892;stroke-dashoffset:0;stroke-opacity:1"
       id="rect7"
       width="107.57855"
       height="4.7494578"
       x="28.930927"
       y="63.978085" />
    <path
       id="text1-6"
       style="font-style:normal;font-variant:normal;font-weight:normal;font-stretch:normal;font-size:18.8707px;font-family:Roboto;-inkscape-font-specification:Roboto;writing-mode:lr-tb;direction:ltr;fill:none;stroke:#000000;stroke-width:0.755;stroke-linecap:round;stroke-linejoin:round;stroke-dasharray:0.755, 2.265;stroke-dashoffset:0;stroke-opacity:1"
       d="m 32.22586,63.184132 c -0.03858,0.402944 -0.05811,0.817153 -0.05811,1.243897 v 0.802482 c 0,1.451881 0.269912,2.788686 0.807326,4.011326 0.537416,1.222637 1.305078,2.279843 2.303137,3.171349 1.013412,0.891505 2.218242,1.586106 3.615524,2.082803 1.412636,0.48396 2.986146,0.725338 4.721233,0.725338 1.642961,0 3.063716,-0.191111 4.261386,-0.5732 1.213025,-0.382073 2.233512,-0.877928 3.062667,-1.489247 0.829156,-0.61132 1.512544,-1.254596 2.049958,-1.929595 L 50.409399,69.52897 c -0.783093,0.853301 -1.696906,1.534802 -2.741031,2.044237 -1.044121,0.509432 -2.317432,0.763909 -3.822198,0.763909 -1.16696,0 -2.211136,-0.184589 -3.132418,-0.553915 -0.905932,-0.369339 -1.68149,-0.879363 -2.32639,-1.528891 -0.629546,-0.649526 -1.114088,-1.400927 -1.451892,-2.254228 -0.29298,-0.786881 -0.452451,-1.620214 -0.479228,-2.501722 h 16.855649 v -1.585674 c 0,-0.246202 -0.0053,-0.48894 -0.01675,-0.728554 z m 24.988319,0 c -0.02224,0.302769 -0.03231,0.608853 -0.03231,0.919264 v 0.802479 c 0,1.388203 0.222542,2.706432 0.667817,3.954541 0.460646,1.235377 1.144031,2.330804 2.04996,3.285989 0.921285,0.955185 2.072133,1.706589 3.454059,2.254228 1.397282,0.547639 3.032674,0.820694 4.905952,0.820694 1.765796,0 3.385395,-0.317828 4.859449,-0.954619 1.474056,-0.649525 2.664384,-1.497029 3.570314,-2.541366 0.921284,-1.05707 1.420331,-2.196202 1.497104,-3.418839 h -4.053419 c -0.07678,0.776885 -0.391472,1.470413 -0.944243,2.081732 -0.552771,0.598583 -1.259847,1.070385 -2.119714,1.414249 -0.859868,0.343868 -1.796078,0.515346 -2.809491,0.515346 -1.320507,0 -2.426561,-0.209699 -3.317138,-0.629982 -0.875219,-0.43302 -1.573107,-1.006397 -2.095169,-1.719601 -0.506705,-0.713205 -0.867494,-1.509382 -1.08246,-2.388156 -0.214972,-0.87877 -0.322929,-1.769974 -0.322929,-2.674216 v -0.802479 c 0,-0.308819 0.01249,-0.614903 0.03745,-0.919264 z m 25.763352,0 v 11.655775 h 4.26009 V 63.184132 Z m 15.315921,0 v 11.655775 h 4.284638 V 63.184132 Z m 9.585848,0 c -0.0334,0.363332 -0.0504,0.732766 -0.0504,1.109972 v 0.439274 c 0,1.490092 0.26072,2.872745 0.78278,4.146323 0.52206,1.273583 1.27523,2.387587 2.25792,3.342774 0.99807,0.94245 2.195,1.680754 3.59228,2.215659 1.39729,0.522169 2.9708,0.783193 4.72124,0.783193 1.75044,0 3.31735,-0.261024 4.69927,-0.783193 1.39729,-0.534905 2.58761,-1.273209 3.57031,-2.215659 0.99807,-0.955187 1.75783,-2.069191 2.27989,-3.342774 0.52206,-1.273578 0.78278,-2.656231 0.78278,-4.146323 v -0.439274 c 0,-0.377206 -0.017,-0.74664 -0.0504,-1.109972 h -4.29755 c 0.0423,0.362373 0.0646,0.731809 0.0646,1.109972 v 0.439274 c 0,1.031601 -0.15405,2.005805 -0.46114,2.922782 -0.29173,0.904246 -0.72891,1.706969 -1.31239,2.407442 -0.58347,0.700467 -1.32084,1.254196 -2.21142,1.66174 -0.87522,0.394811 -1.897,0.592488 -3.06395,0.592488 -1.18232,0 -2.2186,-0.197682 -3.10918,-0.592488 -0.8906,-0.407544 -1.63456,-0.961273 -2.2334,-1.66174 -0.58347,-0.700473 -1.02194,-1.503196 -1.31368,-2.407442 -0.29174,-0.916977 -0.43659,-1.891181 -0.43659,-2.922782 v -0.439274 c 0,-0.378163 0.0192,-0.747599 0.0594,-1.109972 z" />
  </g>
</svg>
