<?xml version="1.0" encoding="UTF-8" standalone="no"?>
<svg
   version="1.1"
   x="0px"
   y="0px"
   viewBox="0 0 80.090202 84.599937"
   xml:space="preserve"
   id="svg11"
   sodipodi:docname="adventure-icon.svg"
   width="80.090202"
   height="84.599937"
   inkscape:version="1.4.2 (ebf0e940d0, 2025-05-08)"
   xmlns:inkscape="http://www.inkscape.org/namespaces/inkscape"
   xmlns:sodipodi="http://sodipodi.sourceforge.net/DTD/sodipodi-0.dtd"
   xmlns="http://www.w3.org/2000/svg"
   xmlns:svg="http://www.w3.org/2000/svg"><defs
     id="defs11" /><sodipodi:namedview
     id="namedview11"
     pagecolor="#ffffff"
     bordercolor="#000000"
     borderopacity="0.25"
     inkscape:showpageshadow="2"
     inkscape:pageopacity="0.0"
     inkscape:pagecheckerboard="0"
     inkscape:deskcolor="#d1d1d1"
     inkscape:zoom="6.496"
     inkscape:cx="30.403325"
     inkscape:cy="41.871921"
     inkscape:window-width="1920"
     inkscape:window-height="1013"
     inkscape:window-x="0"
     inkscape:window-y="0"
     inkscape:window-maximized="1"
     inkscape:current-layer="svg11" /><style
     type="text/css"
     id="style1">
	.st0{fill:none;stroke:#000000;stroke-width:2;stroke-linecap:round;stroke-linejoin:round;stroke-miterlimit:10;}
	.st1{fill:none;stroke:#000000;stroke-width:2;stroke-linecap:round;stroke-linejoin:round;}
	.st2{fill:none;stroke:#000000;stroke-width:2;stroke-linecap:round;stroke-linejoin:round;stroke-dasharray:2.9177,3.8902;}
	.st3{fill:none;stroke:#000000;stroke-width:2;stroke-linecap:round;stroke-linejoin:round;stroke-dasharray:2.9655,3.954;}
	.st4{fill:none;stroke:#000000;stroke-width:2;stroke-linecap:round;stroke-linejoin:round;stroke-dasharray:2.7633,3.6844;}
</style><circle
     transform="rotate(-22.358943)"
     class="st0"
     cx="7.8286295"
     cy="32.757877"
     id="ellipse1"
     r="18.699619"
     style="stroke:#ffffff;stroke-opacity:1" /><circle
     transform="rotate(-22.358943)"
     class="st0"
     cx="7.8286295"
     cy="32.757877"
     id="ellipse2"
     r="15.099692"
     style="stroke:#ffffff;stroke-opacity:1" /><line
     class="st0"
     x1="8.5902338"
     y1="31.799971"
     x2="11.190234"
     y2="30.699968"
     id="line2"
     style="stroke:#ffffff;stroke-opacity:1" /><line
     class="st0"
     x1="28.190237"
     y1="23.699968"
     x2="30.790236"
     y2="22.59997"
     id="line3"
     style="stroke:#ffffff;stroke-opacity:1" /><line
     class="st0"
     x1="14.890235"
     y1="16.199968"
     x2="15.890235"
     y2="18.799969"
     id="line4"
     style="stroke:#ffffff;stroke-opacity:1" /><line
     class="st0"
     x1="22.890234"
     y1="35.799973"
     x2="23.990236"
     y2="38.399971"
     id="line5"
     style="stroke:#ffffff;stroke-opacity:1" /><polyline
     class="st0"
     points="39.3,38.4 18.6,29.1 19.6,32.8 "
     id="polyline5"
     transform="translate(-9.2097654,-6.6000301)"
     style="stroke:#ffffff;stroke-opacity:1" /><circle
     transform="rotate(-22.358943)"
     class="st0"
     cx="7.6284342"
     cy="32.42041"
     id="ellipse5"
     r="0.89998162"
     style="stroke:#ffffff;stroke-opacity:1" /><polyline
     class="st0"
     points="45.3,24.8 52.2,7.6 88.3,22.1 60.9,90.2 24.8,75.7 34.3,52.3 "
     id="polyline6"
     transform="translate(-9.2097654,-6.6000301)"
     style="stroke:#ffffff;stroke-opacity:1" /><g
     id="g6"
     transform="translate(-9.2097654,-6.6000301)"
     style="stroke:#ffffff;stroke-opacity:1"><circle
       transform="matrix(1,-0.00799394,0.00799394,1,-0.2274,0.5283)"
       class="st0"
       cx="66"
       cy="28.700001"
       id="ellipse6"
       r="0.89999998"
       style="stroke:#ffffff;stroke-opacity:1" /><path
       class="st0"
       d="m 59.6,25.9 c -1.4,3.6 1.6,14.7 1.6,14.7 0,0 9.9,-5.9 11.3,-9.4 1.4,-3.5 -0.3,-7.7 -3.9,-9.1 -3.5,-1.6 -7.6,0.2 -9,3.8 z"
       id="path6"
       style="stroke:#ffffff;stroke-opacity:1" /></g><path
     class="st0"
     d="m 37.590235,33.39997 c 0,0 12.1,4 11.8,16 -0.3,12 8.2,19.5 8.2,19.5"
     id="path7"
     style="stroke:#ffffff;stroke-opacity:1" /><g
     id="g10"
     transform="translate(-9.2097654,-6.6000301)"
     style="stroke:#ffffff;stroke-opacity:1"><path
       class="st1"
       d="m 30,63 c 0,0 0.4,0.3 1.2,0.8"
       id="path8"
       style="stroke:#ffffff;stroke-opacity:1" /><path
       class="st2"
       d="m 34.6,65.6 c 3.8,1.7 9.4,3 15,0.4 8.7,-4.1 15.8,-16.9 24.3,-17.2"
       id="path9"
       style="stroke:#ffffff;stroke-opacity:1" /><path
       class="st1"
       d="m 75.9,49 c 0.5,0.1 1,0.2 1.4,0.4"
       id="path10"
       style="stroke:#ffffff;stroke-opacity:1" /></g><line
     class="st0"
     x1="9.4902353"
     y1="22.499969"
     x2="13.090234"
     y2="21.199968"
     id="line10"
     style="stroke:#ffffff;stroke-opacity:1" /></svg>
